<svg width="517" height="85" viewBox="0 0 517 85" fill="none" xmlns="http://www.w3.org/2000/svg">
<path d="M250.74 81.8005L248.38 78.2006C248.16 78.2206 247.91 78.2305 247.66 78.2305H244.67V81.8005H243.38V70.5605H247.65C250.46 70.5605 252.08 71.9406 252.08 74.3306C252.08 76.1806 251.16 77.4506 249.54 77.9606L252.19 81.8005H250.73H250.74ZM247.66 77.0505C249.7 77.0505 250.86 76.1405 250.86 74.3705C250.86 72.6005 249.7 71.7505 247.66 71.7505H244.67V77.0505H247.66Z" fill="#141D5D"/>
<path d="M263.72 78.0408H256.81C257.02 79.7108 258.22 80.8008 259.88 80.8008C260.92 80.8008 261.84 80.4108 262.5 79.7208L263.19 80.4408C262.39 81.3208 261.2 81.8408 259.78 81.8408C257.29 81.8408 255.57 80.0908 255.57 77.5708C255.57 75.0508 257.3 73.3208 259.76 73.3008C262.49 73.3008 263.84 75.1808 263.71 78.0408H263.72ZM262.59 77.0508C262.51 75.4108 261.42 74.3508 259.76 74.3508C258.1 74.3508 256.98 75.4108 256.81 77.0508H262.59Z" fill="#141D5D"/>
<path d="M272.73 81.8003V80.4803C272.06 81.4003 270.98 81.8503 269.63 81.8503C267.88 81.8503 266.76 80.7403 266.76 79.3003C266.76 77.8603 267.93 76.8903 269.92 76.8803H272.7V76.3503C272.7 75.1103 271.93 74.3603 270.44 74.3603C269.51 74.3603 268.64 74.7103 267.76 75.3403L267.23 74.4603C268.32 73.7403 269.24 73.3203 270.68 73.3203C272.77 73.3203 273.92 74.4303 273.94 76.2303L273.96 81.8203H272.74L272.73 81.8003ZM272.71 78.8903V77.8603H270.08C268.67 77.8603 267.93 78.2903 267.93 79.2403C267.93 80.1903 268.68 80.8003 269.87 80.8003C271.3 80.8003 272.39 80.0903 272.71 78.8903Z" fill="#141D5D"/>
<path d="M281.73 74.4305C279.98 74.4305 278.73 75.7106 278.73 77.5806C278.73 79.4506 279.98 80.7405 281.73 80.7405C282.84 80.7405 283.75 80.3506 284.35 79.6506L285.07 80.3906C284.32 81.3006 283.14 81.8505 281.68 81.8505C279.22 81.8505 277.49 80.1006 277.49 77.5806C277.49 75.0606 279.24 73.3105 281.68 73.3105C283.05 73.3105 284.17 73.7805 284.94 74.5605L284.25 75.4305C283.61 74.8005 282.76 74.4305 281.73 74.4305Z" fill="#141D5D"/>
<path d="M293.25 73.3008V74.5208C291.47 74.4908 290.36 75.6008 290.22 77.3008V81.8008H288.97V73.3508H290.22V75.2308C290.78 73.9908 291.83 73.3208 293.25 73.3008Z" fill="#141D5D"/>
<path d="M303.83 78.0408H296.92C297.13 79.7108 298.33 80.8008 299.99 80.8008C301.03 80.8008 301.95 80.4108 302.61 79.7208L303.3 80.4408C302.5 81.3208 301.31 81.8408 299.89 81.8408C297.4 81.8408 295.68 80.0908 295.68 77.5708C295.68 75.0508 297.41 73.3208 299.87 73.3008C302.6 73.3008 303.95 75.1808 303.82 78.0408H303.83ZM302.71 77.0508C302.63 75.4108 301.54 74.3508 299.88 74.3508C298.22 74.3508 297.1 75.4108 296.93 77.0508H302.71Z" fill="#141D5D"/>
<path d="M315.36 69.8809V81.8008H314.11V79.9808C313.48 81.1708 312.33 81.8608 310.82 81.8608C308.41 81.8608 306.74 80.0809 306.74 77.5609C306.74 75.0409 308.41 73.2908 310.8 73.2908C312.31 73.2908 313.48 73.9809 314.11 75.1909V69.8909H315.36V69.8809ZM314.11 77.5909C314.11 75.7309 312.84 74.3809 311.06 74.3809C309.28 74.3809 307.99 75.7309 307.99 77.5909C307.99 79.4509 309.26 80.7908 311.06 80.7908C312.86 80.7908 314.11 79.4609 314.11 77.5909Z" fill="#141D5D"/>
<path d="M321.52 70.9301C321.52 71.4101 321.17 71.7801 320.7 71.7801C320.23 71.7801 319.88 71.4101 319.88 70.9301C319.88 70.4501 320.23 70.0801 320.7 70.0801C321.17 70.0801 321.52 70.4301 321.52 70.9301ZM321.33 73.35V81.8H320.09V73.35H321.33Z" fill="#141D5D"/>
<path d="M330.36 81.2206C329.77 81.6206 329.12 81.8506 328.45 81.8506C327.21 81.8706 326.3 81.1306 326.3 79.4606V74.5906H325.08V73.6106H326.3V71.3906H327.54V73.6106H330.22V74.5906H327.54V79.2506C327.54 80.2806 327.94 80.7006 328.66 80.7006C329.09 80.6806 329.54 80.5406 330.01 80.2706L330.36 81.2306V81.2206Z" fill="#141D5D"/>
<path d="M339.11 81.8003V80.4803C338.44 81.4003 337.36 81.8503 336.01 81.8503C334.26 81.8503 333.14 80.7403 333.14 79.3003C333.14 77.8603 334.31 76.8903 336.3 76.8803H339.08V76.3503C339.08 75.1103 338.31 74.3603 336.82 74.3603C335.89 74.3603 335.02 74.7103 334.14 75.3403L333.61 74.4603C334.7 73.7403 335.62 73.3203 337.06 73.3203C339.15 73.3203 340.3 74.4303 340.32 76.2303L340.34 81.8203H339.12L339.11 81.8003ZM339.09 78.8903V77.8603H336.46C335.05 77.8603 334.31 78.2903 334.31 79.2403C334.31 80.1903 335.06 80.8003 336.25 80.8003C337.68 80.8003 338.77 80.0903 339.09 78.8903Z" fill="#141D5D"/>
<path d="M352.5 69.8809V81.8008H351.25V79.9808C350.62 81.1708 349.47 81.8608 347.96 81.8608C345.55 81.8608 343.88 80.0809 343.88 77.5609C343.88 75.0409 345.55 73.2908 347.94 73.2908C349.45 73.2908 350.62 73.9809 351.25 75.1909V69.8909H352.5V69.8809ZM351.25 77.5909C351.25 75.7309 349.98 74.3809 348.2 74.3809C346.42 74.3809 345.13 75.7309 345.13 77.5909C345.13 79.4509 346.4 80.7908 348.2 80.7908C350 80.7908 351.25 79.4609 351.25 77.5909Z" fill="#141D5D"/>
<path d="M362.49 81.8003V80.4803C361.82 81.4003 360.74 81.8503 359.39 81.8503C357.64 81.8503 356.52 80.7403 356.52 79.3003C356.52 77.8603 357.69 76.8903 359.68 76.8803H362.46V76.3503C362.46 75.1103 361.69 74.3603 360.2 74.3603C359.27 74.3603 358.4 74.7103 357.52 75.3403L356.99 74.4603C358.08 73.7403 359 73.3203 360.44 73.3203C362.53 73.3203 363.68 74.4303 363.7 76.2303L363.72 81.8203H362.5L362.49 81.8003ZM362.47 78.8903V77.8603H359.84C358.43 77.8603 357.69 78.2903 357.69 79.2403C357.69 80.1903 358.44 80.8003 359.63 80.8003C361.06 80.8003 362.15 80.0903 362.47 78.8903Z" fill="#141D5D"/>
<path d="M381.82 78.0408H374.91C375.12 79.7108 376.32 80.8008 377.98 80.8008C379.02 80.8008 379.94 80.4108 380.6 79.7208L381.29 80.4408C380.49 81.3208 379.3 81.8408 377.88 81.8408C375.39 81.8408 373.67 80.0908 373.67 77.5708C373.67 75.0508 375.4 73.3208 377.86 73.3008C380.59 73.3008 381.94 75.1808 381.81 78.0408H381.82ZM380.7 77.0508C380.62 75.4108 379.53 74.3508 377.87 74.3508C376.21 74.3508 375.09 75.4108 374.92 77.0508H380.7Z" fill="#141D5D"/>
<path d="M393.32 76.6008V81.8008H392.07V76.9208C392.07 75.4108 391.17 74.5108 389.68 74.5108C388.01 74.5308 386.98 75.6308 386.84 77.2708V81.8008H385.59V73.3508H386.84V75.2108C387.43 73.9308 388.57 73.3208 390.12 73.3008C392.14 73.3008 393.33 74.5408 393.33 76.5908L393.32 76.6008Z" fill="#141D5D"/>
<path d="M411.42 78.9305H405.3L404.05 81.8005H402.69L407.73 70.5605H409.06L414.09 81.8005H412.69L411.42 78.9305ZM410.9 77.7405L408.35 71.9606L405.83 77.7405H410.9Z" fill="#141D5D"/>
<path d="M418.61 69.8809V81.8008H417.36V69.8809H418.61Z" fill="#141D5D"/>
<path d="M427.71 81.2206C427.12 81.6206 426.47 81.8506 425.8 81.8506C424.56 81.8706 423.65 81.1306 423.65 79.4606V74.5906H422.43V73.6106H423.65V71.3906H424.89V73.6106H427.57V74.5906H424.89V79.2506C424.89 80.2806 425.29 80.7006 426.01 80.7006C426.44 80.6806 426.89 80.5406 427.36 80.2706L427.71 81.2306V81.2206Z" fill="#141D5D"/>
<path d="M436.46 81.8003V80.4803C435.79 81.4003 434.71 81.8503 433.36 81.8503C431.61 81.8503 430.49 80.7403 430.49 79.3003C430.49 77.8603 431.66 76.8903 433.65 76.8803H436.43V76.3503C436.43 75.1103 435.66 74.3603 434.17 74.3603C433.24 74.3603 432.37 74.7103 431.49 75.3403L430.96 74.4603C432.05 73.7403 432.97 73.3203 434.41 73.3203C436.5 73.3203 437.65 74.4303 437.67 76.2303L437.69 81.8203H436.47L436.46 81.8003ZM436.45 78.8903V77.8603H433.82C432.41 77.8603 431.67 78.2903 431.67 79.2403C431.67 80.1903 432.42 80.8003 433.61 80.8003C435.04 80.8003 436.13 80.0903 436.45 78.8903Z" fill="#141D5D"/>
<path d="M453.5 71.7017C450.96 71.7017 448.92 73.6817 448.92 76.1617C448.92 78.6417 450.96 80.6417 453.5 80.6417C454.74 80.6417 455.94 80.1317 456.82 79.2917L457.61 80.1417C456.5 81.1817 454.99 81.8417 453.43 81.8417C450.19 81.8417 447.62 79.3317 447.62 76.1517C447.62 72.9717 450.22 70.5117 453.48 70.5117C455.02 70.5117 456.51 71.1417 457.59 72.1517L456.82 73.0817C455.95 72.2117 454.73 71.6817 453.5 71.6817V71.7017Z" fill="#141D5D"/>
<path d="M466.6 81.8003V80.4803C465.93 81.4003 464.85 81.8503 463.5 81.8503C461.75 81.8503 460.63 80.7403 460.63 79.3003C460.63 77.8603 461.8 76.8903 463.79 76.8803H466.57V76.3503C466.57 75.1103 465.8 74.3603 464.31 74.3603C463.38 74.3603 462.51 74.7103 461.63 75.3403L461.1 74.4603C462.19 73.7403 463.11 73.3203 464.55 73.3203C466.64 73.3203 467.79 74.4303 467.81 76.2303L467.83 81.8203H466.61L466.6 81.8003ZM466.59 78.8903V77.8603H463.96C462.55 77.8603 461.81 78.2903 461.81 79.2403C461.81 80.1903 462.56 80.8003 463.75 80.8003C465.18 80.8003 466.27 80.0903 466.59 78.8903Z" fill="#141D5D"/>
<path d="M473.56 69.8809V81.8008H472.31V69.8809H473.56Z" fill="#141D5D"/>
<path d="M479.72 70.9301C479.72 71.4101 479.37 71.7801 478.9 71.7801C478.43 71.7801 478.08 71.4101 478.08 70.9301C478.08 70.4501 478.43 70.0801 478.9 70.0801C479.37 70.0801 479.72 70.4301 479.72 70.9301ZM479.53 73.35V81.8H478.29V73.35H479.53Z" fill="#141D5D"/>
<path d="M491.96 69.8809V81.8008H490.71V79.9808C490.08 81.1708 488.93 81.8608 487.42 81.8608C485.01 81.8608 483.34 80.0809 483.34 77.5609C483.34 75.0409 485.01 73.2908 487.4 73.2908C488.91 73.2908 490.08 73.9809 490.71 75.1909V69.8909H491.96V69.8809ZM490.71 77.5909C490.71 75.7309 489.44 74.3809 487.66 74.3809C485.88 74.3809 484.59 75.7309 484.59 77.5909C484.59 79.4509 485.86 80.7908 487.66 80.7908C489.46 80.7908 490.71 79.4609 490.71 77.5909Z" fill="#141D5D"/>
<path d="M501.95 81.8003V80.4803C501.28 81.4003 500.2 81.8503 498.85 81.8503C497.1 81.8503 495.98 80.7403 495.98 79.3003C495.98 77.8603 497.15 76.8903 499.14 76.8803H501.92V76.3503C501.92 75.1103 501.15 74.3603 499.66 74.3603C498.73 74.3603 497.86 74.7103 496.98 75.3403L496.45 74.4603C497.54 73.7403 498.46 73.3203 499.9 73.3203C501.99 73.3203 503.14 74.4303 503.16 76.2303L503.18 81.8203H501.96L501.95 81.8003ZM501.93 78.8903V77.8603H499.3C497.89 77.8603 497.15 78.2903 497.15 79.2403C497.15 80.1903 497.9 80.8003 499.09 80.8003C500.52 80.8003 501.61 80.0903 501.93 78.8903Z" fill="#141D5D"/>
<path d="M515.34 69.8809V81.8008H514.09V79.9808C513.46 81.1708 512.31 81.8608 510.8 81.8608C508.39 81.8608 506.72 80.0809 506.72 77.5609C506.72 75.0409 508.39 73.2908 510.78 73.2908C512.29 73.2908 513.46 73.9809 514.09 75.1909V69.8909H515.34V69.8809ZM514.09 77.5909C514.09 75.7309 512.82 74.3809 511.04 74.3809C509.26 74.3809 507.97 75.7309 507.97 77.5909C507.97 79.4509 509.24 80.7908 511.04 80.7908C512.84 80.7908 514.09 79.4609 514.09 77.5909Z" fill="#141D5D"/>
<path d="M255.54 53.2908C259 53.2908 261.39 50.8808 261.39 46.8908V29.0508H269.21V46.8908C269.21 55.0008 263.91 60.1208 255.49 60.1208C247.07 60.1208 241.6 54.9908 241.6 46.8908V29.0508H249.42V46.8908C249.42 50.8308 251.98 53.2908 255.53 53.2908H255.54Z" fill="#141D5D"/>
<path d="M298.16 44.8398V59.7798H290.6V47.0698C290.6 44.3998 289.06 42.7297 286.67 42.7297C284.11 42.7697 282.44 44.5697 282.14 47.2397V59.7698H274.53V36.0598H282.14V39.9197C283.76 37.1997 286.41 35.7598 289.79 35.7598C294.83 35.7598 298.17 39.2698 298.17 44.8298L298.16 44.8398Z" fill="#141D5D"/>
<path d="M310.9 36.0703V59.7803H303.34V36.0703H310.9ZM310.6 29.4103C310.6 31.4703 309.15 32.9603 307.14 32.9603C305.13 32.9603 303.68 31.4703 303.68 29.4103C303.68 27.3503 305.13 25.8203 307.14 25.8203C309.15 25.8203 310.6 27.3103 310.6 29.4103Z" fill="#141D5D"/>
<path d="M321.42 36.0703L326.25 52.5503L331.12 36.0703H338.73L330.05 59.7803H322.23L313.6 36.0703H321.42Z" fill="#141D5D"/>
<path d="M362.41 50.0106H346.34C347.07 52.6806 348.99 54.1705 351.6 54.1705C353.57 54.1705 355.49 53.3406 357.03 51.7606L361.01 55.8406C358.66 58.5606 355.2 60.0505 350.92 60.0505C343.35 60.0505 338.7 55.2705 338.7 48.0405C338.7 40.8105 343.53 35.8105 350.75 35.8105C358.83 35.8105 362.93 41.3806 362.42 50.0106H362.41ZM355.06 45.8406C355.06 43.1206 353.35 41.2806 350.79 41.2806C348.23 41.2806 346.69 43.1206 346.17 45.8406H355.06Z" fill="#141D5D"/>
<path d="M381.39 35.7598V42.8998C377.16 42.4598 374.34 44.3897 373.95 47.6797V59.7798H366.34V36.0698H373.95V40.0098C375.53 37.2898 378.14 35.7598 381.39 35.7598Z" fill="#141D5D"/>
<path d="M392.81 41.1508C391.53 41.1508 390.63 41.6307 390.63 42.6407C390.63 45.7507 402.77 44.2607 402.73 52.5007C402.73 57.3607 398.58 60.1307 392.94 60.1307C389.05 60.1307 385.33 58.9907 382.51 56.7607L384.9 51.7207C387.55 53.6007 390.54 54.6607 393.11 54.6607C394.52 54.6607 395.55 54.1808 395.55 53.2108C395.55 49.9708 383.63 51.5907 383.63 43.3907C383.63 38.4407 387.69 35.7207 393.12 35.7207C396.45 35.7207 399.83 36.6807 402.74 38.4807L400.18 43.5607C397.32 42.0307 394.71 41.1508 392.83 41.1508H392.81Z" fill="#141D5D"/>
<path d="M414.39 36.0703V59.7803H406.82V36.0703H414.39ZM414.09 29.4103C414.09 31.4703 412.64 32.9603 410.63 32.9603C408.62 32.9603 407.17 31.4703 407.17 29.4103C407.17 27.3503 408.62 25.8203 410.63 25.8203C412.64 25.8203 414.09 27.3103 414.09 29.4103Z" fill="#141D5D"/>
<path d="M435.25 58.5506C433.58 59.5606 431.27 60.1306 429.01 60.1306C424.52 60.1706 421.28 57.4606 421.28 52.5506V42.3806H418.07V37.2106H421.28V30.6406H428.84V37.2106H434.82V42.3806H428.84V51.3206C428.84 53.0706 429.61 53.8606 430.93 53.8206C431.7 53.8206 432.68 53.5106 433.79 53.0306L435.24 58.5506H435.25Z" fill="#141D5D"/>
<path d="M459.45 44.35V59.78H451.97V57.11C450.47 59.08 448.12 60.13 445 60.13C440.04 60.13 437.09 57.06 437.09 52.72C437.09 48.38 440.21 45.62 445.94 45.53H451.97V45.27C451.97 43.03 450.47 41.72 447.57 41.72C445.65 41.72 443.13 42.38 440.65 43.6L438.56 38.34C442.19 36.67 445.53 35.75 449.33 35.75C455.7 35.75 459.42 38.91 459.46 44.34L459.45 44.35ZM451.97 51.76V49.7H447.44C445.3 49.7 444.23 50.49 444.23 52.15C444.23 53.81 445.38 54.82 447.35 54.82C449.62 54.82 451.5 53.55 451.97 51.75V51.76Z" fill="#141D5D"/>
<path d="M479.63 35.7598V42.8998C475.4 42.4598 472.58 44.3897 472.19 47.6797V59.7798H464.58V36.0698H472.19V40.0098C473.77 37.2898 476.38 35.7598 479.63 35.7598Z" fill="#141D5D"/>
<path d="M490.53 36.0703V59.7803H482.97V36.0703H490.53ZM490.23 29.4103C490.23 31.4703 488.78 32.9603 486.77 32.9603C484.76 32.9603 483.31 31.4703 483.31 29.4103C483.31 27.3503 484.76 25.8203 486.77 25.8203C488.78 25.8203 490.23 27.3103 490.23 29.4103Z" fill="#141D5D"/>
<path d="M516.9 44.35V59.78H509.42V57.11C507.92 59.08 505.57 60.13 502.45 60.13C497.49 60.13 494.54 57.06 494.54 52.72C494.54 48.38 497.66 45.62 503.39 45.53H509.42V45.27C509.42 43.03 507.92 41.72 505.02 41.72C503.1 41.72 500.58 42.38 498.1 43.6L496.01 38.34C499.64 36.67 502.98 35.75 506.78 35.75C513.15 35.75 516.87 38.91 516.91 44.34L516.9 44.35ZM509.42 51.76V49.7H504.89C502.75 49.7 501.69 50.49 501.69 52.15C501.69 53.81 502.84 54.82 504.81 54.82C507.07 54.82 508.95 53.55 509.43 51.75L509.42 51.76Z" fill="#141D5D"/>
<path d="M245.56 4.03125V21.3012H243.59V4.03125H245.56Z" fill="#141D5D"/>
<path d="M277.2 13.3117V21.3017H275.28V13.8017C275.28 11.4817 273.9 10.1017 271.6 10.1017C269.03 10.1217 267.46 11.8317 267.23 14.3417V21.3017H265.31V8.33173H267.23V11.1917C268.14 9.22171 269.89 8.28172 272.26 8.26172C275.37 8.26172 277.19 10.1617 277.19 13.3217L277.2 13.3117Z" fill="#141D5D"/>
<path d="M299.62 9.86072C298.16 9.86072 297.05 10.3807 297.05 11.6107C297.05 14.5407 304.3 13.0407 304.3 17.7007C304.3 20.2407 302.03 21.3807 299.54 21.3807C297.69 21.3807 295.79 20.7407 294.56 19.5507L295.3 18.1407C296.41 19.1807 298.09 19.7907 299.62 19.7907C301.15 19.7907 302.38 19.2007 302.41 17.8907C302.48 14.7307 295.21 16.3407 295.23 11.7507C295.23 9.28073 297.38 8.2207 299.74 8.2207C301.29 8.2207 302.8 8.69076 303.88 9.40076L303.14 10.8807C302.13 10.2407 300.82 9.84076 299.61 9.84076L299.62 9.86072Z" fill="#141D5D"/>
<path d="M328.97 20.4103C328.06 21.0303 327.07 21.3703 326.03 21.3703C324.13 21.3903 322.72 20.2603 322.72 17.6903V10.2203H320.84V8.72028H322.72V5.32031H324.62V8.72028H328.74V10.2203H324.62V17.3703C324.62 18.9503 325.24 19.5903 326.35 19.5903C327.02 19.5703 327.71 19.3403 328.42 18.9203L328.96 20.4003L328.97 20.4103Z" fill="#141D5D"/>
<path d="M348.87 4.60101C348.87 5.34101 348.33 5.91101 347.61 5.91101C346.89 5.91101 346.35 5.34101 346.35 4.60101C346.35 3.86101 346.89 3.29102 347.61 3.29102C348.33 3.29102 348.87 3.83101 348.87 4.60101ZM348.58 8.33105V21.301H346.68V8.33105H348.58Z" fill="#141D5D"/>
<path d="M374.77 20.4103C373.86 21.0303 372.87 21.3703 371.83 21.3703C369.93 21.3903 368.52 20.2603 368.52 17.6903V10.2203H366.64V8.72028H368.52V5.32031H370.42V8.72028H374.54V10.2203H370.42V17.3703C370.42 18.9503 371.04 19.5903 372.15 19.5903C372.82 19.5703 373.51 19.3403 374.22 18.9203L374.76 20.4003L374.77 20.4103Z" fill="#141D5D"/>
<path d="M403.75 8.33032V21.3003H401.83V18.3603C400.97 20.3803 399.24 21.3503 396.9 21.3703C393.87 21.3703 392.04 19.4503 392.04 16.3103V8.32031H393.96V15.8203C393.96 18.1403 395.32 19.5203 397.56 19.5203C400.25 19.4703 401.83 17.5003 401.83 14.6803V8.32031H403.75V8.33032Z" fill="#141D5D"/>
<path d="M428.44 9.98022C425.75 9.98022 423.83 11.9502 423.83 14.8102C423.83 17.6702 425.75 19.6702 428.44 19.6702C430.14 19.6702 431.55 19.0802 432.46 17.9902L433.57 19.1202C432.41 20.5302 430.61 21.3602 428.37 21.3602C424.6 21.3602 421.93 18.6702 421.93 14.8002C421.93 10.9302 424.62 8.24023 428.37 8.24023C430.47 8.24023 432.19 8.96022 433.38 10.1602L432.32 11.4902C431.33 10.5302 430.03 9.96027 428.45 9.96027L428.44 9.98022Z" fill="#141D5D"/>
<path d="M454.06 4.60101C454.06 5.34101 453.52 5.91101 452.8 5.91101C452.08 5.91101 451.54 5.34101 451.54 4.60101C451.54 3.86101 452.08 3.29102 452.8 3.29102C453.52 3.29102 454.06 3.83101 454.06 4.60101ZM453.76 8.33105V21.301H451.86V8.33105H453.76Z" fill="#141D5D"/>
<path d="M485.11 14.7908C485.11 18.6608 482.37 21.3808 478.52 21.3808C474.67 21.3808 471.93 18.6708 471.93 14.7908C471.93 10.9108 474.64 8.25079 478.52 8.25079C482.4 8.25079 485.11 10.9408 485.11 14.7908ZM473.86 14.8108C473.86 17.7208 475.78 19.6908 478.52 19.6908C481.26 19.6908 483.18 17.7208 483.18 14.8108C483.18 11.9008 481.23 9.95081 478.52 9.95081C475.81 9.95081 473.86 11.9508 473.86 14.8108ZM482.13 3.6908L479.07 6.1308H477.22L480.18 2.80078L482.13 3.6908Z" fill="#141D5D"/>
<path d="M515.17 13.3117V21.3017H513.25V13.8017C513.25 11.4817 511.87 10.1017 509.57 10.1017C507 10.1217 505.43 11.8317 505.2 14.3417V21.3017H503.28V8.33173H505.2V11.1917C506.11 9.22171 507.86 8.28172 510.23 8.26172C513.34 8.26172 515.16 10.1617 515.16 13.3217L515.17 13.3117Z" fill="#141D5D"/>
<path d="M195.07 19.0107C194.82 7.95074 181.58 3.95074 171.98 2.13074C147.92 -1.25926 122.29 1.91073 97.74 7.75073C91.77 9.28073 85.69 10.9307 79.71 12.7907C80.78 11.6407 81.63 10.3407 82.17 8.98071C83.87 4.36071 81.32 0.720703 76.7 0.720703C76.33 0.720703 76.0901 0.720703 75.7301 0.720703C71.3501 1.0907 66.62 4.61072 64.92 8.99072C63.22 13.4907 65.65 17.1307 70.39 17.1307C72.21 17.1307 74.04 16.6407 75.74 15.7907C77.17 15.0707 78.48 14.0907 79.57 12.9507C85.96 12.3707 92.47 12.1407 99.2 12.2507C120.68 12.2407 140.06 15.0907 154.72 19.7607H154.71L146.94 30.9407C145.12 33.4907 143.3 36.1707 142.09 38.3507C140.87 40.4207 139.54 42.4807 138.57 44.4307H138.32C139.05 41.3907 139.65 37.3807 140.02 32.7607C140.26 31.9107 140.14 31.4207 140.26 31.0607L141.1 19.7607L123.6 19.6508L107.94 47.9707L98.35 65.1107L107.95 65.2307H114.87L123.97 47.2407C124.46 45.9007 125.43 44.3207 125.91 42.9907C126.39 41.9007 127.12 40.4407 127.6 38.9807C127.36 40.1907 127.12 41.7707 127 43.2307C126.64 44.5707 126.64 46.2707 126.52 47.8507L125.19 65.2207L135.39 65.3408L147.41 47.8408C148.38 46.3808 149.59 44.6807 150.57 43.1007C151.29 41.7607 152.27 40.1808 152.87 39.0908C152.39 40.4308 152.27 42.0108 151.78 43.3408C151.29 44.4308 150.93 46.0107 150.32 47.3507L145.83 65.3307H162.48L170.72 26.7007C177.14 30.5507 181.19 34.9607 182.17 39.6807C187.76 34.9407 192.37 29.4708 194.44 23.5208C194.8 22.0608 195.04 20.7207 195.04 19.5107V19.0208L195.07 19.0107Z" fill="#141D5D"/>
<path d="M95.28 73.4608C64.87 73.4708 38.66 67.7407 24.3 59.1907H28.01L30.07 53.6007H24.24L22.57 58.1207C17.11 54.5407 13.68 50.5007 12.79 46.2207C7.24 50.9307 2.65 56.3708 0.6 62.2808C0.24 63.7308 0 65.0607 0 66.2607V66.7407C0.25 77.7307 13.41 81.7007 22.95 83.5107C46.86 86.8807 72.33 83.7307 96.73 77.9207C102.88 76.3507 109.17 74.6507 115.32 72.7207C108.8 73.3307 102.16 73.5708 95.28 73.4608Z" fill="#141D5D"/>
<path d="M48.5301 36.7014L50.5901 30.8613L46.5801 30.8713H44.7601L42.5701 36.5814H46.5801L48.5301 36.7014Z" fill="#141D5D"/>
<path d="M73.45 65.1208H75.76L90.7 65.1108L102.23 34.4908L107.94 34.4808H111.83L117.41 19.6508L107.93 19.6608L81.2 19.5508L75.74 33.7708L75.5 34.3808H75.74L85.1 34.4908L75.75 58.9208L73.45 65.1208Z" fill="#141D5D"/>
<path d="M40.1501 42.78L40.3901 42.1699H40.1501H34.4301L32.3701 47.8799L38.2001 47.9999L40.1501 42.78Z" fill="#141D5D"/>
<path d="M40.03 59.3014H40.15H45.86L43.68 65.0114H46.59L60.08 65.0014H60.81L75.74 25.6314L78.04 19.5514H75.73L60.91 19.4414L60.06 21.7514L56.54 30.9814H60.07H62.62L60.31 36.5714H60.07H54.48L52.3 42.1614L46.58 42.1714H46.46L44.28 48.0014H46.59L50.11 47.9914L47.93 53.5914H46.59L42.22 53.4714L40.15 58.8114L40.03 59.3014Z" fill="#141D5D"/>
<path d="M220.05 3.54102V81.541" stroke="#141D5D" stroke-width="1.15" stroke-miterlimit="10"/>
</svg>
