<svg width="289" height="125" viewBox="0 0 289 125" fill="none" xmlns="http://www.w3.org/2000/svg">
<path d="M288.85 27.07C288.48 10.7 268.87 4.77 254.65 2.08C219.02 -2.94 181.06 1.75 144.72 10.41C135.88 12.67 126.88 15.11 118.03 17.87C119.61 16.17 120.88 14.24 121.67 12.23C124.18 5.39 120.41 0 113.57 0C113.03 0 112.67 0 112.13 0C105.65 0.54 98.63 5.76 96.12 12.24C93.61 18.9 97.21 24.29 104.22 24.29C106.92 24.29 109.62 23.57 112.14 22.31C114.26 21.25 116.19 19.8 117.82 18.11C127.28 17.25 136.92 16.9 146.89 17.08C178.7 17.06 207.4 21.28 229.1 28.2H229.08L217.57 44.76C214.87 48.54 212.18 52.5 210.39 55.74C208.59 58.8 206.61 61.86 205.18 64.74H204.82C205.9 60.24 206.79 54.3 207.33 47.47C207.69 46.21 207.51 45.49 207.69 44.95L208.94 28.22L183.03 28.05L159.84 69.98L145.64 95.36L159.85 95.53H170.1L183.58 68.89C184.3 66.91 185.74 64.57 186.46 62.59C187.18 60.97 188.26 58.81 188.97 56.65C188.62 58.45 188.26 60.79 188.08 62.94C187.54 64.92 187.55 67.44 187.36 69.78L185.39 95.51L200.5 95.68L218.3 69.76C219.74 67.6 221.53 65.08 222.97 62.74C224.04 60.76 225.49 58.42 226.38 56.8C225.66 58.78 225.49 61.12 224.77 63.1C224.05 64.72 223.51 67.06 222.61 69.04L215.96 95.67H240.61L252.82 38.46C262.33 44.16 268.33 50.69 269.77 57.68C278.05 50.66 284.87 42.56 287.94 33.74C288.47 31.58 288.83 29.6 288.83 27.8V27.08L288.85 27.07Z" fill="#1B1464"/>
<path d="M141.08 107.709C96.05 107.729 57.24 99.2394 35.97 86.5694H41.47L44.52 78.2894H35.88L33.41 84.9794C25.32 79.6694 20.24 73.6994 18.93 67.3594C10.7 74.3394 3.91997 82.3894 0.879974 91.1494C0.349974 93.2994 0 95.2594 0 97.0494V97.7694C0.37 114.039 19.86 119.929 33.98 122.599C69.39 127.589 107.11 122.919 143.23 114.319C152.34 111.989 161.65 109.479 170.76 106.609C161.1 107.509 151.27 107.869 141.08 107.699V107.709Z" fill="#1B1464"/>
<path d="M71.85 53.2709L74.9 44.6309H68.96H66.27L63.03 53.1009L68.97 53.0909L71.85 53.2709Z" fill="#1B1464"/>
<path d="M108.75 95.3509H112.17L134.3 95.3409L151.37 49.9909H159.83H165.59L173.86 28.0309L159.82 28.0409L120.24 27.8809L112.15 48.9309L111.79 49.8309H112.15L126 50.0109L112.17 86.1809L108.75 95.3509Z" fill="#1B1464"/>
<path d="M59.4399 62.2691L59.7999 61.3691H59.4399L50.9799 61.3791L47.9199 69.8391L56.5599 70.0091L59.4399 62.2691Z" fill="#1B1464"/>
<path d="M59.27 86.7409H59.45H67.91L64.67 95.1909H68.99L88.96 95.1809H90.04L112.14 36.8809L115.56 27.8809H112.14L90.18 27.7109L88.93 31.1309L83.72 44.8109H88.94L92.71 44.8009L89.3 53.0809H88.94L80.66 53.0909L77.43 61.3609L68.97 61.3709H68.79L65.56 70.0009H68.98H74.2L70.96 78.2809H68.98L62.51 78.1109L59.45 86.0209L59.27 86.7409Z" fill="#1B1464"/>
</svg>
